#usda 1.0

def "Halves"
{
    half nearest = 0.1
    half third = 0.333
    half tieToEven = 1.00048828125
    half aboveTie = 1.0004883
    half tieToOdd = 1.00146484375
    half subnormal = 5.960464477539063e-8
    half subnormalRounded = 1e-7
    half aboveHalfSmallest = 3e-8
    half halfSmallest = 2.9802322387695312e-8
    half subnormalToNormal = 6.1033e-5
    half largest = 65519
    half overflow = 65520
    half negativeOverflow = -1e9
    half infinity = inf
    half notANumber = nan
    half2 pair = (0.1, -0.333)
    half3 triple = (1e-7, 65519, 0.2)
    half4 quad = (0.3, 0.7, -0.9, 1.1)
    quath rotation = (0.1, 0.2, 0.3, 0.9)
    half[] array = [0.1, 1e-7, 70000]
    half sampled.timeSamples = {
        0: 0.1,
        1: 1e-7,
    }
}
